<?xml version="1.0" encoding="UTF-8" ?>
<!DOCTYPE svg PUBLIC "-//W3C//DTD SVG 1.1//EN" "http://www.w3.org/Graphics/SVG/1.1/DTD/svg11.dtd">
<svg width="2000pt" height="640pt" viewBox="0 0 2000 640" version="1.1" xmlns="http://www.w3.org/2000/svg">
<g id="#000000ff">
<path fill="#000000" opacity="1.00" d=" M 212.21 65.30 C 241.54 63.90 271.21 70.21 297.36 83.60 C 327.48 98.90 352.82 123.40 369.15 152.97 C 384.17 179.93 391.49 211.06 390.26 241.89 C 387.05 275.21 399.23 309.56 422.16 333.86 C 444.10 357.43 475.75 371.67 508.01 371.90 C 518.11 372.20 528.05 370.09 538.10 369.47 C 568.96 366.50 598.17 349.23 615.29 323.33 C 628.30 303.97 634.24 280.17 632.73 256.96 C 632.17 250.96 631.46 244.91 632.18 238.89 C 633.68 223.17 642.06 208.30 654.65 198.79 C 666.29 189.81 681.46 185.62 696.06 187.29 C 712.23 188.95 727.41 197.92 736.80 211.16 C 745.81 223.61 749.41 239.74 746.70 254.85 C 743.24 275.71 727.32 293.82 707.10 299.97 C 676.05 308.51 650.46 332.98 638.78 362.76 C 630.08 384.81 629.41 409.88 636.58 432.44 C 643.00 448.05 645.67 465.19 644.02 482.00 C 641.37 512.12 624.40 540.47 599.31 557.27 C 579.20 570.97 554.08 577.10 529.92 574.18 C 498.77 570.80 469.87 552.06 453.84 525.18 C 446.35 512.94 441.80 499.07 439.79 484.90 C 433.30 450.56 411.00 419.57 380.38 402.67 C 349.32 384.89 310.12 382.42 277.00 395.88 C 244.44 407.46 208.34 408.72 175.03 399.58 C 146.33 391.75 119.83 376.15 98.96 354.96 C 76.49 332.25 60.57 303.12 53.81 271.89 C 46.57 239.01 49.34 204.00 61.78 172.71 C 73.97 141.79 95.50 114.66 122.78 95.68 C 148.91 77.35 180.32 66.69 212.21 65.30 Z" />
<path fill="#000000" opacity="1.00" d=" M 867.00 240.96 C 885.28 236.92 905.65 238.98 921.33 249.78 C 929.81 255.48 936.19 264.29 938.42 274.32 C 929.65 277.85 920.71 280.95 911.88 284.34 C 910.44 279.30 906.67 275.27 902.05 272.96 C 892.57 268.11 881.02 267.51 871.01 271.03 C 865.53 272.89 860.66 277.95 861.19 284.07 C 861.25 289.57 866.23 293.10 870.67 295.34 C 883.54 301.76 897.84 304.44 911.09 309.91 C 921.59 314.16 932.25 319.68 939.05 329.06 C 946.87 339.88 947.47 354.43 943.98 366.94 C 940.36 379.98 930.17 390.64 917.72 395.68 C 902.95 401.73 886.31 402.24 870.78 399.17 C 856.09 396.05 841.55 389.05 832.16 376.99 C 828.72 372.50 826.15 367.28 825.12 361.69 C 834.26 358.26 843.38 354.72 852.48 351.16 C 854.21 357.11 858.41 362.12 863.79 365.15 C 872.85 370.38 883.79 371.37 894.01 370.00 C 900.04 369.11 906.36 367.14 910.57 362.49 C 914.84 357.90 915.34 349.82 910.70 345.30 C 907.16 341.82 902.44 339.95 897.92 338.13 C 884.71 333.13 870.71 330.28 857.99 324.01 C 847.67 319.10 837.49 312.06 832.68 301.31 C 826.76 287.59 828.91 270.80 837.84 258.86 C 844.78 249.39 855.67 243.46 867.00 240.96 Z" />
<path fill="#000000" opacity="1.00" d=" M 1673.14 252.18 C 1685.86 241.11 1703.65 238.17 1720.00 239.30 C 1736.20 240.69 1753.00 247.77 1762.24 261.71 C 1764.80 265.56 1766.43 269.93 1767.52 274.41 C 1758.68 277.77 1749.81 281.02 1740.97 284.34 C 1739.69 279.79 1736.50 275.99 1732.42 273.67 C 1724.36 268.95 1714.52 267.90 1705.44 269.54 C 1700.81 270.45 1696.04 272.20 1692.95 275.92 C 1689.29 280.23 1689.28 287.49 1693.73 291.26 C 1698.83 295.75 1705.43 297.94 1711.69 300.28 C 1726.94 305.50 1743.03 309.28 1756.65 318.27 C 1764.17 323.18 1770.51 330.31 1773.16 339.02 C 1778.40 356.46 1773.19 377.29 1758.59 388.72 C 1745.04 399.52 1726.78 401.96 1709.97 400.66 C 1693.66 399.18 1677.18 393.25 1665.34 381.61 C 1659.89 376.19 1655.70 369.33 1654.21 361.73 C 1663.32 358.22 1672.47 354.80 1681.53 351.15 C 1683.33 356.80 1687.12 361.73 1692.25 364.74 C 1701.07 370.15 1711.88 371.30 1722.00 370.14 C 1728.39 369.35 1735.17 367.44 1739.66 362.53 C 1743.98 357.93 1744.47 349.79 1739.79 345.27 C 1735.42 341.09 1729.53 339.10 1723.99 337.01 C 1710.24 332.25 1695.84 329.00 1683.01 321.93 C 1674.23 317.22 1665.92 310.58 1661.79 301.29 C 1654.60 284.74 1659.40 263.89 1673.14 252.18 Z" />
<path fill="#000000" opacity="1.00" d=" M 1804.74 251.74 C 1817.43 241.03 1834.92 238.20 1851.06 239.30 C 1867.25 240.68 1884.06 247.74 1893.30 261.67 C 1895.88 265.52 1897.51 269.91 1898.62 274.39 C 1889.79 277.78 1880.91 281.02 1872.06 284.34 C 1870.37 277.93 1864.72 273.54 1858.74 271.36 C 1849.69 268.02 1839.32 267.82 1830.33 271.40 C 1825.24 273.37 1820.94 278.28 1821.41 283.99 C 1821.41 289.44 1826.28 293.00 1830.68 295.23 C 1843.52 301.70 1857.82 304.37 1871.07 309.82 C 1880.07 313.45 1889.04 317.92 1895.87 324.98 C 1901.11 330.38 1904.53 337.45 1905.64 344.89 C 1907.58 357.89 1904.64 371.94 1896.22 382.23 C 1888.11 392.31 1875.63 397.91 1863.07 399.88 C 1843.59 402.94 1822.74 399.81 1805.93 389.19 C 1796.07 382.95 1787.63 373.44 1785.28 361.74 C 1794.47 358.29 1803.57 354.63 1812.78 351.22 C 1814.38 357.20 1818.70 362.13 1824.03 365.15 C 1833.30 370.50 1844.52 371.41 1854.96 369.89 C 1860.88 368.91 1867.10 366.86 1871.11 362.13 C 1875.30 357.28 1875.38 348.98 1870.32 344.71 C 1865.09 340.28 1858.40 338.23 1852.07 335.97 C 1838.77 331.67 1825.04 328.20 1812.81 321.21 C 1804.26 316.45 1796.29 309.67 1792.51 300.42 C 1785.78 283.79 1790.87 263.19 1804.74 251.74 Z" />
<path fill="#000000" opacity="1.00" d=" M 964.11 240.40 C 998.61 240.43 1033.10 240.40 1067.60 240.41 C 1067.51 250.05 1067.79 259.70 1067.46 269.34 C 1043.01 269.16 1018.55 269.31 994.10 269.26 C 994.08 281.22 994.09 293.18 994.10 305.14 C 1016.27 305.16 1038.45 305.12 1060.62 305.16 C 1060.60 314.70 1060.61 324.24 1060.61 333.78 C 1038.44 333.80 1016.27 333.78 994.10 333.79 C 994.10 345.75 994.06 357.70 994.12 369.66 C 1019.06 369.62 1044.00 369.65 1068.94 369.64 C 1068.95 379.19 1068.95 388.73 1068.95 398.28 C 1034.00 398.29 999.05 398.29 964.10 398.28 C 964.09 345.66 964.07 293.03 964.11 240.40 Z" />
<path fill="#000000" opacity="1.00" d=" M 1140.24 240.40 C 1150.43 240.41 1160.63 240.43 1170.83 240.39 C 1190.19 292.98 1209.35 345.66 1228.63 398.28 C 1217.31 398.32 1205.98 398.23 1194.67 398.33 C 1190.34 386.50 1186.36 374.54 1182.16 362.66 C 1164.35 362.64 1146.54 362.66 1128.73 362.65 C 1124.55 374.53 1120.73 386.53 1116.39 398.35 C 1105.08 398.20 1093.77 398.33 1082.47 398.29 C 1101.73 345.66 1120.93 293.01 1140.24 240.40 M 1138.88 334.03 C 1150.00 334.04 1161.11 334.04 1172.23 334.03 C 1166.70 317.88 1161.12 301.76 1155.58 285.62 C 1149.92 301.72 1144.42 317.88 1138.88 334.03 Z" />
<path fill="#000000" opacity="1.00" d=" M 1243.23 240.41 C 1252.58 240.44 1261.92 240.35 1271.27 240.46 C 1287.72 267.03 1304.01 293.71 1320.68 320.14 C 1337.24 293.55 1353.85 266.99 1370.44 240.42 C 1379.70 240.49 1388.98 240.24 1398.24 240.54 C 1398.11 293.12 1398.23 345.70 1398.18 398.28 C 1388.18 398.29 1378.19 398.29 1368.20 398.28 C 1368.16 365.18 1368.24 332.08 1368.16 298.98 C 1355.29 319.61 1342.47 340.26 1329.75 360.98 C 1323.80 361.22 1317.85 360.98 1311.91 361.13 C 1298.88 340.48 1286.22 319.59 1273.22 298.92 C 1273.24 332.04 1273.23 365.16 1273.23 398.28 C 1263.21 398.24 1253.20 398.39 1243.19 398.20 C 1243.28 345.61 1243.20 293.01 1243.23 240.41 Z" />
<path fill="#000000" opacity="1.00" d=" M 1423.12 240.39 C 1433.07 240.42 1443.02 240.44 1452.97 240.37 C 1453.24 283.46 1452.98 326.56 1453.10 369.65 C 1474.68 369.66 1496.25 369.59 1517.83 369.69 C 1517.78 379.21 1517.81 388.73 1517.82 398.26 C 1486.24 398.32 1454.66 398.27 1423.08 398.28 C 1423.10 345.65 1423.03 293.02 1423.12 240.39 Z" />
<path fill="#000000" opacity="1.00" d=" M 1535.97 240.36 C 1570.45 240.55 1604.93 240.25 1639.40 240.51 C 1639.27 250.09 1639.38 259.67 1639.35 269.26 C 1614.84 269.27 1590.33 269.26 1565.83 269.26 C 1565.81 281.22 1565.81 293.18 1565.83 305.13 C 1588.00 305.15 1610.18 305.13 1632.36 305.15 C 1632.35 314.69 1632.36 324.24 1632.35 333.79 C 1610.17 333.79 1588.00 333.78 1565.83 333.79 C 1565.88 345.75 1565.68 357.72 1565.93 369.68 C 1590.87 369.68 1615.82 369.50 1640.76 369.76 C 1640.53 379.30 1640.95 388.84 1640.54 398.37 C 1605.64 398.17 1570.73 398.35 1535.83 398.28 C 1535.91 345.64 1535.62 292.99 1535.97 240.36 Z" />
</g>
</svg>
