<svg id="Layer_1" data-name="Layer 1" xmlns="http://www.w3.org/2000/svg" viewBox="0 0 275.12 41.24"><path d="M23.44,19c4.67-1,9.8-.56,13.82,2.24a10,10,0,0,1,4.29,6.25c-2.15.84-4.48,1.68-6.72,2.52a4.59,4.59,0,0,0-2.52-2.89,10,10,0,0,0-7.85-.47,3.3,3.3,0,0,0-2.52,3.27c0,1.4,1.31,2.33,2.43,2.9,3.27,1.58,6.91,2.33,10.27,3.73,2.71,1,5.42,2.43,7.1,4.86,2,2.7,2.15,6.44,1.31,9.61a11.52,11.52,0,0,1-6.73,7.38,21.7,21.7,0,0,1-11.95.84,16.58,16.58,0,0,1-9.8-5.6,8.29,8.29,0,0,1-1.78-3.92Q16.26,48.41,19.7,47a6.12,6.12,0,0,0,2.9,3.55,12.21,12.21,0,0,0,7.65,1.3,7.28,7.28,0,0,0,4.3-2,3.29,3.29,0,0,0,0-4.39,11.16,11.16,0,0,0-3.27-1.77c-3.36-1.31-6.91-2-10.18-3.64-2.61-1.22-5.23-3-6.44-5.79A11.28,11.28,0,0,1,16,23.49,12.39,12.39,0,0,1,23.44,19Z" transform="translate(-12.79 -18.48)"/><path d="M228.58,21.81c3.27-2.8,7.75-3.55,12-3.27s8.4,2.15,10.73,5.69a10.78,10.78,0,0,1,1.31,3.27q-3.36,1.21-6.72,2.52a4.79,4.79,0,0,0-2.15-2.7,9.82,9.82,0,0,0-6.91-1,4.92,4.92,0,0,0-3.17,1.59,2.87,2.87,0,0,0,.18,3.92A14,14,0,0,0,238.39,34c3.92,1.4,8,2.33,11.48,4.57a10.76,10.76,0,0,1,4.2,5.33,12.1,12.1,0,0,1-3.73,12.7c-3.46,2.7-8.12,3.36-12.42,3a18.22,18.22,0,0,1-11.3-4.85,10.49,10.49,0,0,1-2.89-5c2.33-.94,4.67-1.78,7-2.71a5.92,5.92,0,0,0,2.71,3.45,11.89,11.89,0,0,0,7.56,1.4,6.56,6.56,0,0,0,4.48-2,3.29,3.29,0,0,0,.1-4.39,11.11,11.11,0,0,0-4-2.05c-3.55-1.21-7.19-2-10.46-3.92a11.35,11.35,0,0,1-5.41-5.23,11.24,11.24,0,0,1,2.89-12.51Z" transform="translate(-12.79 -18.48)"/><path d="M262.1,21.71c3.18-2.7,7.66-3.45,11.77-3.17s8.4,2.15,10.74,5.69A11.3,11.3,0,0,1,286,27.5c-2.24.84-4.58,1.68-6.82,2.52a4.72,4.72,0,0,0-3.36-3.26,9.52,9.52,0,0,0-7.19,0,3.28,3.28,0,0,0-2.33,3.17c0,1.4,1.21,2.33,2.33,2.9,3.27,1.58,6.91,2.33,10.37,3.64a18,18,0,0,1,6.25,3.92,9.25,9.25,0,0,1,2.52,5A12.39,12.39,0,0,1,285.36,55,13.4,13.4,0,0,1,277,59.44a21.51,21.51,0,0,1-14.57-2.71,11,11,0,0,1-5.22-7c2.33-.84,4.66-1.78,7-2.71a5.65,5.65,0,0,0,2.8,3.55,12.34,12.34,0,0,0,7.94,1.21,6.39,6.39,0,0,0,4.11-2,3.3,3.3,0,0,0-.19-4.39,13.5,13.5,0,0,0-4.67-2.24c-3.36-1.12-6.91-2-10-3.83a11.33,11.33,0,0,1-5.23-5.23,11.15,11.15,0,0,1,3.17-12.42Z" transform="translate(-12.79 -18.48)"/><path d="M48.09,18.82H74.51c-.09,2.43,0,4.95-.09,7.38H55.75v9.15h17q-.09,3.63-.09,7.28H55.75v9.15h19v7.28H48.09V18.82Z" transform="translate(-12.79 -18.48)"/><path d="M93,18.82h7.75c5,13.35,9.81,26.8,14.66,40.24h-8.59c-1.12-3-2.15-6.07-3.17-9.05q-6.83-.1-13.64-.1C89,53,88,56.08,86.93,59.06c-2.89-.09-5.79,0-8.68,0Q85.63,38.9,93,18.82Zm-.37,23.81h8.5L96.83,30.3Q94.69,36.46,92.63,42.63Z" transform="translate(-12.79 -18.48)"/><path d="M119.15,18.82h7.19c4.2,6.82,8.31,13.54,12.51,20.35l12.7-20.35h7.09c-.09,13.44,0,26.8,0,40.24H151V33.76q-5,7.85-9.81,15.78c-1.49.09-3,0-4.57,0-3.27-5.23-6.54-10.55-9.81-15.78v25.3c-2.52,0-5.13,0-7.65-.09V18.82Z" transform="translate(-12.79 -18.48)"/><path d="M165,18.82h7.57c.09,11,0,21.94,0,33,5.51,0,11-.09,16.53,0v7.28H164.9c.09-13.44,0-26.8.09-40.24Z" transform="translate(-12.79 -18.48)"/><path d="M193.66,18.82c8.78.09,17.56,0,26.33,0V26.2H201.32q-.09,4.57,0,9.15h16.9v7.28h-16.9c0,3-.1,6.07,0,9.15,6.35,0,12.7-.09,19.05,0-.1,2.43,0,4.86-.1,7.28-8.87-.09-17.74,0-26.61,0,0-13.44-.09-26.8,0-40.24Z" transform="translate(-12.79 -18.48)"/></svg>