<svg version="1.2" xmlns="http://www.w3.org/2000/svg" viewBox="0 0 280 51" width="240" height="44">
	<title>logo(2)</title>
	<style>
		.s0 { fill: #ffffff } 
	</style>
	<g id="#000000ff">
		<path class="s0" d="m-155.2-40.9c7.4-0.3 15 1.3 21.6 4.7 7.7 3.9 14.1 10.2 18.3 17.7 3.8 6.9 5.7 14.8 5.4 22.7-0.8 8.5 2.3 17.2 8.1 23.4 5.6 6 13.6 9.7 21.8 9.7 2.6 0.1 5.1-0.4 7.7-0.6 7.9-0.7 15.3-5.1 19.7-11.7 3.3-5 4.8-11.1 4.4-17-0.2-1.5-0.3-3-0.1-4.6 0.3-4 2.5-7.8 5.7-10.2 2.9-2.3 6.8-3.4 10.5-2.9 4.1 0.4 8 2.7 10.4 6 2.3 3.2 3.2 7.3 2.5 11.2-0.9 5.3-4.9 9.9-10.1 11.5-7.9 2.2-14.4 8.4-17.4 16-2.2 5.6-2.4 12-0.5 17.8 1.6 4 2.3 8.3 1.9 12.6-0.7 7.7-5 14.9-11.4 19.2-5.1 3.5-11.5 5.1-17.7 4.3-7.9-0.8-15.3-5.6-19.3-12.5-1.9-3.1-3.1-6.6-3.6-10.2-1.7-8.8-7.3-16.7-15.1-21-7.9-4.5-17.9-5.2-26.3-1.7-8.3 2.9-17.5 3.2-26 0.9-7.3-2-14.1-6-19.4-11.4-5.7-5.8-9.7-13.2-11.5-21.2-1.8-8.4-1.1-17.3 2.1-25.3 3.1-7.8 8.6-14.8 15.5-19.6 6.7-4.7 14.6-7.4 22.8-7.8z"/>
		<path class="s0" d="m11.4 3.9c4.7-1 9.9-0.5 13.8 2.3 2.2 1.4 3.8 3.7 4.4 6.3-2.2 0.9-4.5 1.6-6.8 2.5-0.3-1.3-1.3-2.3-2.5-2.9-2.4-1.2-5.3-1.4-7.9-0.5-1.4 0.5-2.6 1.8-2.5 3.3 0.1 1.4 1.3 2.3 2.4 2.9 3.3 1.7 7 2.3 10.3 3.7 2.7 1.1 5.4 2.5 7.2 4.9 1.9 2.8 2.1 6.5 1.2 9.7-0.9 3.3-3.5 6-6.7 7.3-3.7 1.5-8 1.7-11.9 0.9-3.8-0.8-7.5-2.6-9.9-5.7-0.8-1.1-1.5-2.4-1.7-3.9q3.4-1.3 6.9-2.7c0.5 1.6 1.5 2.8 2.9 3.6 2.3 1.4 5.1 1.6 7.7 1.3 1.5-0.3 3.1-0.8 4.2-2 1.1-1.1 1.2-3.2 0-4.3-0.9-0.9-2.1-1.4-3.2-1.9-3.4-1.2-6.9-2-10.2-3.6-2.6-1.2-5.2-3-6.4-5.8-1.5-3.5-1-7.7 1.3-10.8 1.8-2.4 4.5-3.9 7.4-4.6z"/>
		<path class="s0" d="m216.6 6.8c3.2-2.8 7.8-3.6 11.9-3.3 4.1 0.4 8.4 2.2 10.8 5.7 0.6 1 1 2.1 1.3 3.3q-3.4 1.3-6.7 2.5c-0.4-1.2-1.2-2.1-2.2-2.7-2.1-1.2-4.6-1.5-6.9-1.1-1.2 0.3-2.4 0.7-3.2 1.7-0.9 1.1-0.9 2.9 0.2 3.9 1.3 1.1 3 1.7 4.6 2.3 3.9 1.3 8 2.3 11.4 4.6 2 1.2 3.6 3 4.2 5.3 1.4 4.4 0.1 9.7-3.7 12.6-3.4 2.8-8.1 3.4-12.3 3.1-4.2-0.4-8.4-1.9-11.4-4.9-1.4-1.4-2.4-3.1-2.8-5.1 2.3-0.9 4.6-1.7 6.9-2.7 0.5 1.5 1.4 2.7 2.8 3.5 2.2 1.4 4.9 1.7 7.5 1.4 1.7-0.2 3.4-0.7 4.5-2 1.1-1.1 1.2-3.2 0.1-4.4-1.2-1-2.7-1.5-4.1-2.1-3.5-1.2-7.1-2-10.4-3.8-2.2-1.2-4.3-2.9-5.4-5.3-1.8-4.2-0.6-9.5 2.9-12.5z"/>
		<path class="s0" d="m250.1 6.7c3.2-2.7 7.7-3.5 11.8-3.2 4.1 0.4 8.4 2.2 10.7 5.7 0.7 1 1.1 2.1 1.4 3.3q-3.4 1.3-6.8 2.5c-0.4-1.6-1.9-2.7-3.4-3.3-2.3-0.9-4.9-0.9-7.2 0-1.3 0.5-2.4 1.8-2.3 3.2 0 1.4 1.3 2.3 2.4 2.9 3.3 1.6 6.9 2.3 10.3 3.7 2.3 0.9 4.5 2.1 6.3 3.9 1.3 1.3 2.2 3.2 2.5 5.1 0.5 3.3-0.3 6.8-2.4 9.5-2.1 2.5-5.3 4-8.5 4.5-4.9 0.8-10.2 0-14.5-2.8-2.5-1.5-4.7-4-5.3-7 2.4-0.8 4.7-1.8 7-2.6 0.4 1.5 1.5 2.7 2.9 3.5 2.4 1.4 5.2 1.6 7.9 1.2 1.5-0.2 3.1-0.7 4.1-2 1-1.2 1.1-3.3-0.2-4.4-1.4-1.1-3.1-1.6-4.7-2.2-3.4-1.1-6.8-2-10-3.8-2.1-1.2-4.2-2.9-5.1-5.3-1.7-4.2-0.4-9.5 3.1-12.4z"/>
		<path class="s0" d="m36.1 3.8q13.2 0 26.4 0c-0.1 2.5 0 4.9-0.1 7.4-6.2-0.1-12.4 0-18.6 0q0 4.5 0 9.1 8.4 0 16.9 0 0 3.7 0 7.3-8.5 0-16.9 0 0 4.6 0 9.2 9.5 0 19 0 0 3.6 0 7.3-13.3 0-26.7 0 0-20.2 0-40.3z"/>
		<path class="s0" d="m81 3.8q3.8 0 7.7 0c5 13.4 9.8 26.8 14.8 40.3-2.9 0-5.8 0-8.7 0-1.1-3-2.1-6.1-3.2-9.1q-6.8 0-13.6 0c-1 3-2 6.1-3.1 9.1-2.9-0.1-5.8 0-8.6 0q7.3-20.2 14.7-40.3zm-0.4 23.9q4.3 0 8.5 0-2.1-6.2-4.2-12.4-2.2 6.2-4.3 12.4z"/>
		<path class="s0" d="m107.2 3.8c2.4 0 4.7 0 7.1 0 4.2 6.8 8.3 13.6 12.6 20.3q6.3-10.1 12.6-20.3c2.4 0 4.8 0 7.1 0 0 13.4 0 26.9 0 40.3q-3.8 0-7.6 0c0-8.5 0-16.9 0-25.4q-4.9 7.9-9.8 15.9c-1.5 0-3 0-4.5 0-3.4-5.3-6.6-10.6-9.9-15.9q0 12.7 0 25.4c-2.5 0-5.1 0-7.6-0.1 0-13.4 0-26.8 0-40.2z"/>
		<path class="s0" d="m153 3.8q3.8 0 7.6 0c0 11 0 22 0 33 5.5 0 11-0.1 16.5 0q-0.1 3.6 0 7.3-12.1 0-24.2 0c0.1-13.5 0-26.9 0.1-40.3z"/>
		<path class="s0" d="m181.7 3.8c8.8 0 17.5 0 26.3 0 0 2.5 0 4.9 0 7.4q-9.4 0-18.7 0 0 4.5 0 9.1 8.4 0 16.9 0 0 3.7 0 7.3-8.5 0-16.9 0c0 3.1-0.1 6.1 0 9.2 6.4 0 12.7-0.1 19 0 0 2.4 0.1 4.9 0 7.3-8.9-0.1-17.8 0-26.7 0 0.1-13.5 0-26.9 0.1-40.3z"/>
	</g>
</svg>