<svg xmlns="http://www.w3.org/2000/svg" viewBox="0 0 235.84 35.46"><defs><style>.cls-1{fill:#fff;}</style></defs><g id="Layer_2" data-name="Layer 2"><g id="Layer_1-2" data-name="Layer 1"><path class="cls-1" d="M9.09.41c4-.86,8.48-.43,11.82,2a8.78,8.78,0,0,1,3.78,5.4c-1.89.77-3.86,1.37-5.83,2.14a3.91,3.91,0,0,0-2.15-2.49A8.82,8.82,0,0,0,9.94,7,3,3,0,0,0,7.8,9.83a3.36,3.36,0,0,0,2.06,2.49c2.83,1.46,6,2,8.83,3.17a14,14,0,0,1,6.17,4.2,10.12,10.12,0,0,1,1,8.32,9.71,9.71,0,0,1-5.75,6.25A17.92,17.92,0,0,1,9.94,35a14.22,14.22,0,0,1-8.48-4.88A7.34,7.34,0,0,1,0,26.81q2.91-1.12,5.91-2.32A5.31,5.31,0,0,0,8.4,27.58,10.35,10.35,0,0,0,15,28.69,6.42,6.42,0,0,0,18.6,27a2.67,2.67,0,0,0,0-3.69,9,9,0,0,0-2.74-1.63c-2.92-1-5.92-1.71-8.75-3.08a10.4,10.4,0,0,1-5.48-5A9.46,9.46,0,0,1,2.74,4.35,11,11,0,0,1,9.09.41Z"/><path class="cls-1" d="M185,2.89c2.74-2.4,6.69-3.08,10.2-2.83S202.37,2,204.43,5a10.18,10.18,0,0,1,1.11,2.83q-2.91,1.11-5.74,2.14a4.19,4.19,0,0,0-1.89-2.31,8.92,8.92,0,0,0-5.91-1,4.76,4.76,0,0,0-2.74,1.46,2.5,2.5,0,0,0,.17,3.34,12.78,12.78,0,0,0,3.94,2c3.34,1.12,6.86,2,9.77,3.95a7.59,7.59,0,0,1,3.6,4.54,10,10,0,0,1-3.17,10.8c-2.91,2.4-6.94,2.91-10.54,2.66a15.87,15.87,0,0,1-9.77-4.2,8.48,8.48,0,0,1-2.4-4.37c2-.78,3.94-1.46,5.91-2.32a5.19,5.19,0,0,0,2.4,3,9.8,9.8,0,0,0,6.43,1.2A5.77,5.77,0,0,0,199.46,27a2.86,2.86,0,0,0,.08-3.77,13.41,13.41,0,0,0-3.51-1.8c-3-1-6.09-1.72-8.92-3.26a10.35,10.35,0,0,1-4.62-4.54A9.53,9.53,0,0,1,185,2.89Z"/><path class="cls-1" d="M213.69,2.81c2.74-2.32,6.6-3,10.11-2.75S231,2,233,5a8.37,8.37,0,0,1,1.2,2.83q-2.91,1.11-5.83,2.14a4.58,4.58,0,0,0-2.91-2.83,8.53,8.53,0,0,0-6.17,0,2.92,2.92,0,0,0-2,2.74c0,1.2,1.11,2,2.05,2.49,2.83,1.37,5.92,2,8.83,3.17a15.42,15.42,0,0,1,5.4,3.34,8.06,8.06,0,0,1,2.14,4.38,10.71,10.71,0,0,1-2.05,8.14,12,12,0,0,1-7.29,3.86,17.7,17.7,0,0,1-12.43-2.4,9.5,9.5,0,0,1-4.54-6c2.06-.69,4-1.55,6-2.23a5.07,5.07,0,0,0,2.49,3,10.29,10.29,0,0,0,6.77,1,5.14,5.14,0,0,0,3.51-1.72,2.78,2.78,0,0,0-.17-3.77,14.68,14.68,0,0,0-4-1.89A45.19,45.19,0,0,1,215.4,18,9.38,9.38,0,0,1,211,13.43a9.55,9.55,0,0,1,2.66-10.62Z"/><path class="cls-1" d="M30.26.32H52.89c-.09,2.14,0,4.2-.09,6.34-5.31-.08-10.63,0-15.94,0v7.8H51.34v6.26H36.86v7.89H53.14v6.25H30.26Z"/><path class="cls-1" d="M68.74.32h6.6c4.29,11.49,8.4,23,12.69,34.54H80.57c-.94-2.57-1.8-5.23-2.74-7.8H66.17c-.86,2.57-1.71,5.23-2.66,7.8-2.48-.08-5,0-7.37,0Q62.4,17.55,68.74.32ZM68.4,20.81h7.29l-3.6-10.63Q70.2,15.49,68.4,20.81Z"/><path class="cls-1" d="M91.2.32h6.09c3.6,5.83,7.11,11.66,10.8,17.4q5.4-8.65,10.8-17.4H125V34.86h-6.51V13.09q-4.2,6.78-8.4,13.63H106.2c-2.91-4.54-5.66-9.09-8.49-13.63V34.86c-2.14,0-4.37,0-6.51-.08Z"/><path class="cls-1" d="M130.46.32H137V28.61c4.72,0,9.43-.09,14.14,0-.05,2.05-.05,4.14,0,6.25H130.37c.09-11.57,0-23,.09-34.54Z"/><path class="cls-1" d="M155.06.32H177.6V6.66h-16v7.8h14.49v6.26H161.57c0,2.66-.08,5.23,0,7.89,5.49,0,10.89-.09,16.29,0,0,2.05.08,4.2,0,6.25-7.63-.08-15.26,0-22.89,0,.09-11.57,0-23,.09-34.54Z"/></g></g></svg>