<svg version="1.2" xmlns="http://www.w3.org/2000/svg" viewBox="0 0 42 32" width="42" height="32">
	<title>logo(2)</title>
	<style>
		.s0 { fill: #ffffff } 
	</style>
	<g id="#000000ff">
		<path class="s0" d="m10 0.5c1.7-0.1 3.5 0.3 5 1.1 1.8 0.9 3.3 2.4 4.3 4.2 0.9 1.6 1.3 3.4 1.2 5.3-0.1 2 0.6 4 1.9 5.5 1.3 1.4 3.2 2.3 5.1 2.3 0.6 0 1.2-0.1 1.8-0.2 1.8-0.2 3.6-1.2 4.6-2.7 0.8-1.2 1.1-2.6 1-4 0-0.4-0.1-0.7 0-1.1 0.1-0.9 0.6-1.8 1.3-2.4 0.7-0.5 1.6-0.8 2.5-0.7 0.9 0.1 1.8 0.6 2.4 1.4 0.5 0.8 0.7 1.8 0.6 2.7-0.2 1.2-1.2 2.3-2.4 2.7-1.8 0.5-3.3 1.9-4 3.7-0.5 1.3-0.6 2.8-0.1 4.2 0.3 0.9 0.5 2 0.4 3-0.2 1.8-1.2 3.5-2.7 4.5-1.2 0.8-2.6 1.2-4.1 1-1.8-0.2-3.5-1.3-4.5-2.9-0.4-0.8-0.7-1.6-0.8-2.5-0.4-2-1.7-3.9-3.5-4.9-1.9-1.1-4.2-1.2-6.2-0.4-1.9 0.7-4.1 0.8-6 0.2-1.7-0.4-3.3-1.4-4.5-2.6-1.4-1.4-2.3-3.2-2.7-5-0.4-2-0.3-4.1 0.5-6 0.7-1.8 2-3.4 3.6-4.6 1.5-1.1 3.4-1.7 5.3-1.8z"/>
		<path class="s0" d="m48.8 11c1.1-0.2 2.3-0.1 3.2 0.6 0.5 0.3 0.9 0.8 1.1 1.4q-0.8 0.3-1.6 0.6c-0.1-0.3-0.3-0.5-0.6-0.7-0.6-0.2-1.2-0.3-1.8-0.1-0.4 0.1-0.7 0.4-0.6 0.8 0 0.3 0.3 0.5 0.5 0.7 0.8 0.4 1.7 0.5 2.4 0.9 0.7 0.2 1.3 0.5 1.7 1.1 0.5 0.7 0.5 1.5 0.3 2.3-0.2 0.8-0.8 1.4-1.6 1.7-0.8 0.4-1.8 0.4-2.8 0.2-0.8-0.2-1.7-0.6-2.2-1.3q-0.4-0.4-0.5-0.9 0.9-0.4 1.7-0.7c0.1 0.4 0.3 0.7 0.6 0.9 0.6 0.3 1.2 0.3 1.8 0.3 0.4-0.1 0.8-0.2 1-0.5 0.3-0.3 0.3-0.8 0-1-0.2-0.2-0.5-0.3-0.7-0.5-0.8-0.3-1.7-0.4-2.4-0.8-0.6-0.3-1.2-0.7-1.5-1.4-0.4-0.8-0.2-1.8 0.3-2.5 0.4-0.6 1-0.9 1.7-1.1z"/>
		<path class="s0" d="m96.6 11.7c0.8-0.7 1.9-0.8 2.8-0.8 1 0.1 2 0.5 2.5 1.4q0.3 0.3 0.3 0.7-0.7 0.3-1.5 0.6c-0.1-0.2-0.3-0.5-0.5-0.6-0.5-0.3-1.1-0.4-1.6-0.3-0.3 0.1-0.6 0.2-0.8 0.4-0.2 0.3-0.2 0.7 0.1 0.9 0.3 0.3 0.7 0.4 1 0.6 0.9 0.3 1.9 0.5 2.7 1.1 0.4 0.3 0.8 0.7 1 1.2 0.3 1 0 2.3-0.9 3-0.8 0.6-1.9 0.8-2.9 0.7-0.9-0.1-1.9-0.5-2.6-1.1-0.3-0.4-0.6-0.8-0.7-1.2q0.8-0.3 1.6-0.7c0.1 0.4 0.4 0.7 0.7 0.8 0.5 0.4 1.1 0.4 1.7 0.4 0.4-0.1 0.8-0.2 1.1-0.5 0.2-0.3 0.3-0.8 0-1-0.3-0.3-0.6-0.4-0.9-0.5-0.9-0.3-1.7-0.5-2.5-0.9-0.5-0.3-1-0.7-1.2-1.3-0.5-1-0.2-2.2 0.6-2.9z"/>
		<path class="s0" d="m104.5 11.7c0.7-0.7 1.7-0.8 2.7-0.8 1 0.1 2 0.5 2.5 1.4q0.2 0.3 0.3 0.7-0.8 0.3-1.6 0.6c-0.1-0.4-0.4-0.6-0.7-0.8-0.6-0.2-1.2-0.2-1.7 0-0.3 0.2-0.6 0.5-0.6 0.8 0 0.3 0.3 0.5 0.6 0.7 0.8 0.4 1.6 0.5 2.4 0.9 0.5 0.2 1.1 0.4 1.5 0.9 0.3 0.3 0.5 0.7 0.5 1.2 0.2 0.7 0 1.6-0.5 2.2-0.5 0.6-1.2 0.9-2 1-1.1 0.2-2.4 0-3.4-0.6-0.6-0.4-1.1-0.9-1.2-1.6q0.8-0.4 1.6-0.7c0.1 0.4 0.4 0.7 0.7 0.9 0.5 0.3 1.2 0.3 1.8 0.2 0.4 0 0.7-0.1 1-0.4 0.2-0.3 0.2-0.8-0.1-1.1-0.3-0.2-0.7-0.3-1-0.5-0.8-0.2-1.6-0.4-2.4-0.9-0.5-0.3-1-0.7-1.2-1.2-0.4-1-0.1-2.2 0.8-2.9z"/>
		<path class="s0" d="m54.6 11q3.1 0 6.1 0 0 0.9 0 1.7-2.2 0-4.3 0 0 1.1 0 2.2 1.9 0 3.9 0 0 0.8 0 1.7-2 0-3.9 0 0 1.1 0 2.1 2.2 0 4.4 0 0 0.9 0 1.8-3.1 0-6.2 0 0-4.8 0-9.5z"/>
		<path class="s0" d="m65 11q0.9 0 1.8 0 1.8 4.7 3.5 9.5-1 0-2 0-0.4-1.1-0.8-2.2-1.6 0-3.2 0-0.3 1.1-0.7 2.2-1-0.1-2 0 1.7-4.8 3.4-9.5zm0 5.6q0.9 0 1.9 0-0.5-1.4-1-2.9-0.5 1.4-0.9 2.9z"/>
		<path class="s0" d="m71.1 11q0.9 0 1.7 0 1.5 2.4 2.9 4.8 1.5-2.4 3-4.8 0.8 0 1.6 0 0 4.7 0 9.5-0.9 0-1.7 0 0-3 0-6-1.2 1.9-2.3 3.7-0.6 0-1.1 0-1.1-1.8-2.3-3.7 0 3 0 6-0.9 0-1.8-0.1 0-4.7 0-9.4z"/>
		<path class="s0" d="m81.8 11q0.9 0 1.8 0 0 3.9 0 7.7 1.9 0 3.8 0 0 0.9 0 1.8-2.8 0-5.6 0 0-4.8 0-9.5z"/>
		<path class="s0" d="m88.5 11q3.1 0 6.1 0 0 0.9 0 1.7-2.1 0-4.3 0 0 1.1 0 2.2 2 0 3.9 0 0 0.8 0 1.7-1.9 0-3.9 0 0 1.1 0 2.1 2.2 0 4.4 0c0 0.6 0 1.2 0 1.8q-3.1-0.1-6.2 0 0-4.8 0-9.5z"/>
	</g>
</svg>